<svg width="1728" height="171" viewBox="0 0 1728 171" fill="none" xmlns="http://www.w3.org/2000/svg">
<path fill-rule="evenodd" clip-rule="evenodd" d="M-4 116.591L32.1875 112.705C68.375 108.818 140.75 101.045 213.125 116.591C285.5 132.136 357.875 171 430.25 171C502.625 171 575 132.136 647.375 124.364C719.75 116.591 792.125 139.909 864.5 136.023C936.875 132.136 1009.25 101.045 1081.62 81.6136C1154 62.1818 1226.37 54.4091 1298.75 46.6364C1371.12 38.8636 1443.5 31.0909 1515.87 46.6364C1588.25 62.1818 1660.62 101.045 1696.81 120.477L1733 139.909V5.72205e-06H1696.81C1660.62 5.72205e-06 1588.25 5.72205e-06 1515.87 5.72205e-06C1443.5 5.72205e-06 1371.12 5.72205e-06 1298.75 5.72205e-06C1226.37 5.72205e-06 1154 5.72205e-06 1081.62 5.72205e-06C1009.25 5.72205e-06 936.875 5.72205e-06 864.5 5.72205e-06C792.125 5.72205e-06 719.75 5.72205e-06 647.375 5.72205e-06C575 5.72205e-06 502.625 5.72205e-06 430.25 5.72205e-06C357.875 5.72205e-06 285.5 5.72205e-06 213.125 5.72205e-06C140.75 5.72205e-06 68.375 5.72205e-06 32.1875 5.72205e-06H-4V116.591Z" fill="url(#paint0_linear_3_25)"/>
<defs>
<linearGradient id="paint0_linear_3_25" x1="864.5" y1="265.444" x2="932.684" y2="-913.496" gradientUnits="userSpaceOnUse">
<stop stop-color="#FFB800"/>
<stop offset="1" stop-color="#FCB90C" stop-opacity="0"/>
</linearGradient>
</defs>
</svg>
