<svg width="1728" height="234" viewBox="0 0 1728 234" fill="none" xmlns="http://www.w3.org/2000/svg">
<path fill-rule="evenodd" clip-rule="evenodd" d="M0 159.545L36.1875 154.227C72.375 148.909 144.75 138.273 217.125 159.545C289.5 180.818 361.875 234 434.25 234C506.625 234 579 180.818 651.375 170.182C723.75 159.545 796.125 191.455 868.5 186.136C940.875 180.818 1013.25 138.273 1085.62 111.682C1158 85.0909 1230.38 74.4545 1302.75 63.8182C1375.12 53.1818 1447.5 42.5455 1519.88 63.8182C1592.25 85.0909 1664.62 138.273 1700.81 164.864L1737 191.455V0H1700.81C1664.62 0 1592.25 0 1519.88 0C1447.5 0 1375.12 0 1302.75 0C1230.38 0 1158 0 1085.62 0C1013.25 0 940.875 0 868.5 0C796.125 0 723.75 0 651.375 0C579 0 506.625 0 434.25 0C361.875 0 289.5 0 217.125 0C144.75 0 72.375 0 36.1875 0H0V159.545Z" fill="url(#paint0_linear_3_25)"/>
<defs>
<linearGradient id="paint0_linear_3_25" x1="868.5" y1="363.238" x2="995.81" y2="-1245.37" gradientUnits="userSpaceOnUse">
<stop stop-color="#FFB800"/>
<stop offset="1" stop-color="#FCB90C" stop-opacity="0"/>
</linearGradient>
</defs>
</svg>
